<svg width="202" height="240" viewBox="0 0 202 240" fill="none" xmlns="http://www.w3.org/2000/svg">
<path d="M45.5565 2.91734C50.6745 6.28882 55.4764 10.1171 59.9035 14.3553C64.9768 19.3017 69.3443 24.9235 72.8829 31.0622C74.2499 33.2821 75.6169 35.502 76.9302 37.7526C76.1581 36.7397 75.2716 35.8195 74.2882 35.0103C71.4087 33.3048 68.3177 31.985 65.0945 31.0847C63.0219 30.3883 60.8696 29.9571 58.6887 29.8014C56.4438 29.4742 54.1729 29.3609 51.9065 29.463C46.8834 29.9415 41.9885 31.3256 37.4584 33.5481C36.2295 34.124 31.2752 35.4678 33.5102 37.3344C36.0832 38.4868 38.9712 38.4332 41.7056 38.9173C44.4399 39.4014 47.5736 40.3157 50.4616 41.1455C52.6299 41.6935 54.7575 42.3918 56.8289 43.2352C59.7523 44.7679 62.8828 45.8678 66.1225 46.5003C71.115 47.768 76.2307 44.6807 81.1617 45.7257C83.3018 50.2524 85.2216 54.8739 86.9213 59.5901C89.9137 67.2676 92.3943 75.1349 94.3469 83.1403C96.0747 92.034 97.1802 101.037 97.6552 110.085C96.8081 108.423 95.8724 106.808 94.8521 105.246C94.1592 103.984 93.379 102.773 92.5174 101.62C90.837 99.8569 89.0159 98.2333 87.072 96.7656C84.5276 94.5279 81.5609 92.8223 78.3469 91.7493C73.7984 89.8464 69.1468 88.1998 64.4142 86.8171C60.4509 85.7184 56.4723 84.7657 52.4783 83.8052C51.1649 83.4365 49.8438 83.0062 48.5304 82.5606C47.577 82.1382 46.5766 81.8313 45.5503 81.6464C45.2666 81.6869 45.0058 81.8247 44.8125 82.0362C44.6191 82.2478 44.5052 82.5199 44.4903 82.8061C44.5824 83.8123 45.3888 84.5804 45.888 85.4254C46.603 86.4484 47.257 87.5129 47.8464 88.6131C49.5966 91.6331 51.5466 94.5328 53.6832 97.293C54.6466 98.3512 55.689 99.3347 56.8014 100.235C59.5245 102.715 62.3752 105.051 65.342 107.233C67.8413 109.148 70.6826 110.569 73.7138 111.42C75.7492 111.957 77.8076 112.334 79.8277 112.903C83.2072 113.825 86.7249 114.892 90.2427 115.653C92.1753 115.922 94.0783 116.372 95.9265 116.998C96.6601 117.311 97.3061 117.799 97.8082 118.419C97.6252 125.267 97.0914 132.102 96.209 138.896C95.9015 141.008 95.5557 143.12 95.1255 145.21C95.0426 144.753 94.9349 144.302 94.803 143.858C94.4286 142.581 93.9615 141.333 93.4053 140.125C92.7015 138.116 91.8493 136.162 90.8557 134.279C89.2204 131.822 87.1389 129.694 84.7192 128.004C82.692 126.149 80.2215 124.847 77.5456 124.224C75.8481 123.778 74.0047 123.625 72.3534 123.087C72.2151 123.018 72.1844 123.002 72.0461 122.933C71.8301 122.729 71.5424 122.617 71.2449 122.623C70.9474 122.629 70.6642 122.751 70.4562 122.964C69.8954 123.547 70.2641 124.385 70.3178 125.084C71.2852 130.023 73.067 132.027 76.8611 135.039L79.3188 137.343C81.7381 139.494 84.7259 140.815 87.1836 142.928C89.2842 144.672 90.9466 146.885 92.0374 149.388C92.5419 150.526 92.9628 151.699 93.2968 152.898C92.4363 156.001 91.4452 159.058 90.2929 162.053C88.09 167.674 85.4894 173.131 82.5108 178.382C82.4803 175.986 82.3346 173.589 82.4039 171.185C82.4091 169.306 82.44 167.401 82.4965 165.471C82.6501 165.163 82.7116 164.81 82.8422 164.472C83.7872 161.853 85.3312 159.495 86.3607 156.899C86.7448 156.131 87.1289 155.363 87.4054 154.541C89.5561 154.887 90.3629 150.701 87.5133 150.486C87.1876 150.508 86.872 150.608 86.5934 150.778C86.3149 150.949 86.0815 151.184 85.9133 151.464C85.7451 151.743 85.647 152.06 85.6273 152.385C85.6076 152.711 85.6669 153.037 85.8002 153.335C85.6738 153.487 85.5844 153.665 85.539 153.857C84.4328 156.069 83.6338 158.435 82.5967 160.701L82.6584 157.237C82.6264 155.81 82.6984 154.383 82.8738 152.966C82.8581 152.849 82.8244 152.735 82.774 152.628C82.9486 152.433 83.0679 152.194 83.1197 151.937C83.1347 151.787 83.1577 151.639 83.1889 151.492C83.2639 151.269 83.2885 151.033 83.2609 150.8C83.2332 150.567 83.154 150.343 83.029 150.144C82.904 149.946 82.7363 149.777 82.5381 149.652C82.3399 149.526 82.1162 149.446 81.8833 149.418C81.3572 149.428 80.8569 149.647 80.4913 150.025C80.1258 150.404 79.9248 150.911 79.9322 151.438C79.6249 152.052 80.2009 152.551 80.6848 152.889L81.0688 153.081C80.7598 154.523 80.5976 155.993 80.5846 157.467C80.5308 158.266 80.4616 159.057 80.4308 159.848C79.9931 158.496 79.5554 157.298 79.4248 156.753C78.8941 154.039 78.0004 151.409 76.7679 148.933C76.5221 148.542 76.2687 148.088 75.754 148.042C75.6253 148.029 75.4952 148.041 75.3713 148.079C75.2474 148.116 75.1321 148.177 75.0321 148.26C74.9321 148.342 74.8494 148.443 74.7887 148.557C74.728 148.671 74.6906 148.797 74.6787 148.925C74.6537 149.158 74.7049 149.393 74.8245 149.594C75.1164 150.316 75.3698 151.076 75.6385 151.806C76.2529 153.534 76.6521 155.347 77.3126 157.06C78.4636 159.529 79.2475 162.153 79.6393 164.848C79.6828 164.987 79.7583 165.113 79.8597 165.217C79.9611 165.322 80.0855 165.4 80.223 165.447C80.1766 168.612 80.2301 171.807 80.3528 174.979C80.4371 177.153 80.7979 179.35 80.8976 181.57L80.0372 183.06C76.2594 189.545 71.9069 195.678 67.0321 201.385C68.7777 197.363 70.2384 193.223 71.4035 188.996C74.5226 179.611 75.1991 172.076 72.6114 162.428C72.0739 160.239 69.9239 152.136 67.7656 151.728C66.4215 151.498 66.3983 152.965 66.4059 153.987C66.4135 155.406 66.29 156.822 66.0369 158.219C65.1226 162.697 63.0638 166.813 62.0111 171.26C61.0464 174.806 60.4388 178.439 60.1976 182.106C60.1697 185.731 60.6083 189.345 61.5025 192.859C62.0235 195.8 62.2803 198.782 62.2699 201.769C62.1514 203.546 61.7628 205.294 61.1174 206.953C61.0465 207.288 60.9247 207.609 60.7563 207.906C56.8722 211.336 52.6248 214.331 48.0898 216.838C42.4211 220.033 36.5296 223.25 30.0852 224.54C19.8158 225.876 9.40809 227.104 -0.945651 226.036C-2.2762 225.959 -3.58217 225.644 -4.80138 225.106C-4.97035 225.021 -5.02411 224.822 -5.17004 224.691C-5.3321 224.556 -5.5316 224.474 -5.74164 224.457C-5.9517 224.439 -6.16217 224.486 -6.34469 224.591C-6.52721 224.697 -6.673 224.855 -6.76238 225.046C-6.85177 225.237 -6.88044 225.451 -6.84454 225.659C-5.73872 228.439 0.674818 228.44 3.4015 228.863C10.7806 229.3 18.1827 229.149 25.5378 228.411C31.6617 228.094 37.6443 226.455 43.0737 223.604C44.6713 223.558 46.2766 223.535 47.8742 223.566C51.2971 223.712 54.7028 224.131 58.059 224.819C62.3065 225.388 65.9624 227.715 69.8872 229.236C69.7402 229.651 69.7359 230.103 69.8751 230.521C70.0142 230.938 70.2887 231.297 70.6551 231.541C70.882 231.686 71.1399 231.775 71.4078 231.802C71.9714 232.222 72.6345 232.488 73.3321 232.574C74.0296 232.66 74.7376 232.564 75.3865 232.294C75.7676 232.129 76.1089 231.883 76.3872 231.575C76.6655 231.267 76.8743 230.902 76.9996 230.506C77.1249 230.11 77.1637 229.691 77.1133 229.279C77.063 228.867 76.9247 228.47 76.7079 228.116C76.1463 227.391 75.3503 226.885 74.4563 226.683C73.5623 226.481 72.6259 226.596 71.8076 227.009C71.5793 227.123 71.3695 227.27 71.1854 227.447C68.2102 225.866 65.1218 224.507 61.9456 223.383C62.9097 223.24 63.8639 223.037 64.8029 222.776C66.173 222.441 67.52 222.018 68.8355 221.509C72.0152 224.444 76.3245 219.167 71.4166 217.231C69.5118 216.855 67.3457 218.153 67.8601 220.042C67.0613 220.334 66.2548 220.603 65.5174 220.887C63.5381 221.56 61.49 222.011 59.411 222.231L57.8134 222.392C57.6556 222.391 57.4983 222.409 57.3448 222.446C53.9363 221.902 50.4886 221.643 47.0372 221.669C48.3276 220.97 49.6564 220.271 50.8854 219.542C55.8043 216.784 60.3611 213.425 64.4507 209.542C68.8878 209.392 73.2496 210.716 76.855 213.307C78.7101 214.386 80.2223 215.968 81.2174 217.87C82.6933 220.412 83.8734 223.116 84.7346 225.927C85.8133 228.375 87.177 230.688 88.7972 232.817C90.0414 234.592 91.2548 236.389 92.6757 238.04C94.1195 240.03 95.9552 240.66 97.8909 238.863C98.8186 238.203 99.5105 237.264 99.8651 236.182C100.357 232.933 97.8148 230.299 96.5246 227.503C95.6798 225.89 95.0578 224.177 94.2515 222.525C91.9616 218.497 89.1207 214.807 85.811 211.564C84.2121 210.284 82.4666 209.198 80.6113 208.33C77.5338 206.532 74.0367 205.578 70.4728 205.564C70.0119 205.564 69.1056 205.533 68.0456 205.541C73.0017 200.073 77.4211 194.142 81.2428 187.83C83.2487 188.197 85.2875 188.354 87.326 188.299C88.432 188.314 89.5381 188.33 90.6441 188.307L91.1741 188.744C94.0328 191.254 96.6954 193.979 99.1385 196.894C100.21 198.441 101.09 200.113 101.757 201.872C102.61 203.815 103.547 205.743 104.476 207.648C106.026 210.825 108.175 213.673 110.804 216.036C112.701 217.43 114.713 218.661 116.818 219.716C117.916 220.169 119.929 221.444 121.027 220.63C122.502 218.833 121.396 214.593 120.383 212.627C117.908 207.683 114.196 203.465 109.607 200.382C109.024 200.091 108.44 199.799 107.925 199.368C106.735 198.6 105.959 197.387 104.807 196.58C103.863 195.801 102.803 195.174 101.666 194.721C100.971 194.575 100.325 194.252 99.7916 193.784C99.2463 193.3 96.2664 190.273 93.632 188.207C96.3152 188.127 98.9921 187.902 101.651 187.532C102.487 187.41 103.315 187.241 104.132 187.025C104.792 187.086 105.438 187.14 106.083 187.232C110.246 187.586 113.648 190.267 116.667 192.948C119.792 196.067 123.51 198.463 126.743 201.482C128.988 203.757 131.676 205.546 134.641 206.738C137.606 207.93 140.784 208.5 143.979 208.412C145.853 208.529 147.734 208.355 149.555 207.897C150.4 207.782 151.406 207.191 151.061 206.192C150.244 205.136 149.302 204.182 148.257 203.35C145.792 200.946 144.033 197.82 140.938 196.137C138.067 194.473 134.996 193.182 131.798 192.296C128.418 191.374 124.808 191.489 121.391 190.682C119.463 190.006 117.435 189.645 115.492 189.038C113.409 187.4 110.987 186.248 108.403 185.666C111.752 184.345 114.847 182.532 118.081 180.904C121.078 179.414 123.91 177.612 126.53 175.528C129.515 173.188 132.326 170.634 134.941 167.887C137.629 164.713 140.017 161.299 142.078 157.687C143.56 155.183 145.197 152.756 146.495 150.16C147.109 148.931 147.547 147.633 148.208 146.427C148.412 146.134 148.519 145.785 148.515 145.429C148.362 144.507 147.202 144.484 146.641 145.068C145.771 145.719 144.842 146.29 143.868 146.773C141.963 147.74 140.043 148.7 138.077 149.637C136.223 150.336 134.419 151.159 132.677 152.102C130.275 153.842 128.101 155.878 126.209 158.162C123.271 161.424 120.63 164.943 118.32 168.676C114.231 174.423 109.418 179.62 104.002 184.137C97.6877 186.049 90.9208 186.064 84.3537 186.179C83.7008 186.178 83.0172 186.086 82.372 186.032C84.7841 181.977 87.0273 177.837 89.1475 173.636C91.2527 169.461 93.0699 165.148 94.5866 160.725C95.7528 161.005 96.9596 161.075 98.1505 160.933C107.022 160.165 112.007 155.688 117.492 149.136C120.045 146.55 122.092 143.51 123.53 140.173C124.041 138.77 124.479 137.343 124.844 135.895C125.297 134.91 125.618 133.869 125.796 132.8C125.736 132.501 125.563 132.238 125.312 132.066C125.06 131.893 124.752 131.826 124.452 131.878C123.546 132.193 123.008 133.306 122.224 133.875C116.617 139.136 108.997 141.7 103.528 147.146C101.14 149.18 98.8771 151.357 96.7531 153.666C98.889 145.567 100.182 137.269 100.611 128.903C100.68 128.189 100.734 127.467 100.78 126.76C102.086 126.415 103.246 125.67 104.567 125.255C111.61 122.69 119.115 120.779 124.761 115.594C130.998 110.802 133.694 106.754 136.859 99.6575C139.086 95.0194 140.69 90.1073 141.63 85.0488C142.356 82.3407 142.725 79.5495 142.729 76.7459C142.714 76.0469 142.699 75.348 142.614 74.6336C142.461 73.0591 140.955 72.9975 140.118 74.0574C139.281 75.1173 138.512 76.423 137.598 77.5213C134.28 81.6226 129.518 83.8881 125.308 86.7374C122.236 89.0414 119.332 91.4299 116.352 93.6648C113.48 95.8365 111.032 98.5181 109.131 101.576C105.267 106.652 103.3 112.812 101.203 118.734C101.111 118.918 101.026 119.087 101.019 119.295C101.112 111.034 100.573 102.779 99.4077 94.6005C99.8686 92.9108 100.391 91.2518 100.883 89.6926C101.828 86.8814 102.704 84.0166 103.825 81.2746C105.538 79.2958 107.381 77.4331 109.341 75.6987C111.732 73.9649 114.214 72.3601 116.776 70.891C116.87 70.958 116.973 71.0099 117.083 71.0447C120.728 71.9837 124.112 73.7355 126.983 76.1686C126.953 76.4304 127.01 76.6949 127.145 76.9213C127.273 77.1141 127.44 77.2788 127.634 77.4055C127.828 77.5322 128.046 77.6184 128.274 77.6588C128.671 77.8066 129.101 77.8451 129.518 77.7704C129.935 77.6957 130.325 77.5104 130.646 77.234C130.967 76.9575 131.208 76.6 131.345 76.1986C131.481 75.7972 131.507 75.3666 131.42 74.9518C131.333 74.5369 131.137 74.1529 130.851 73.8398C130.565 73.5267 130.201 73.2959 129.796 73.1715C129.39 73.0472 128.959 73.0337 128.547 73.1326C128.135 73.2315 127.757 73.4391 127.452 73.7338C124.916 71.8028 122.039 70.3644 118.973 69.4933C121.492 68.2096 124.216 67.3754 127.023 67.0283C127.149 67.2052 127.308 67.3564 127.491 67.4739C127.767 67.6347 128.08 67.7193 128.4 67.7193C128.719 67.7192 129.032 67.6344 129.308 67.4735C129.584 67.3127 129.812 67.0815 129.969 66.8036C130.126 66.5257 130.207 66.211 130.203 65.8918C130.357 65.6168 130.434 65.3043 130.422 64.9888C130.411 64.6734 130.314 64.367 130.14 64.1035C129.966 63.84 129.723 63.6295 129.437 63.4951C129.152 63.3606 128.834 63.3076 128.521 63.3416C128.088 63.4026 127.685 63.593 127.362 63.8877C127.04 64.1824 126.815 64.5677 126.715 64.9929L125.886 65.1157C124.349 65.3399 122.83 65.6708 121.339 66.1062L120.386 66.4364C121.347 65.3611 122.261 64.2245 123.144 63.0724C124.027 61.9203 124.965 60.6223 125.764 59.332C125.764 59.332 125.886 59.0862 125.971 59.1861C128.329 59.77 130.065 56.6056 127.477 55.6376C127.236 55.5761 126.985 55.5676 126.741 55.6125C126.496 55.6574 126.265 55.7548 126.062 55.8979C125.859 56.041 125.689 56.2264 125.565 56.4413C125.44 56.6563 125.364 56.8956 125.341 57.1429C124.873 57.3119 124.642 57.8111 124.327 58.1721C123.505 59.2781 122.76 60.4609 121.946 61.5899C120.677 63.3782 119.302 65.0889 117.829 66.7127C117.69 66.9892 117.314 67.0506 117.13 67.3041C117.049 67.4134 116.999 67.5424 116.986 67.6776C116.972 67.8127 116.995 67.949 117.053 68.0722C116.507 68.3947 115.977 68.725 115.447 69.0552C113.189 70.5374 110.746 71.7355 108.657 73.3406C108.066 73.8321 107.52 74.3467 106.967 74.8766C108.838 71.487 110.882 68.1954 113.09 65.0149C116.193 60.9212 119.826 57.2654 122.876 53.1256C123.744 52.0043 124.612 50.8829 125.511 49.777C125.724 49.6351 125.947 49.5093 126.179 49.4007C127.956 48.6034 129.809 47.986 131.709 47.5577C134.357 46.7748 137.073 46.2427 139.821 45.9684C141.919 45.9455 144.017 46.0457 146.104 46.2684C148.406 46.6142 150.614 47.4244 152.594 48.65L152.962 48.8344C153.108 49.3106 153.246 49.8022 153.369 50.2861C153.751 52.3809 154.277 54.4468 154.943 56.4693C156.391 60.6091 158.262 64.5885 160.526 68.3444C163.698 73.5216 168.944 76.8939 173.921 80.1894C176.217 81.7795 178.414 83.4925 180.764 85.0135C181.674 85.9861 182.528 87.0093 183.322 88.0784C183.568 88.2236 183.861 88.2687 184.14 88.2044C184.418 88.1401 184.662 87.9713 184.82 87.7328C185.083 86.586 185.224 85.4146 185.242 84.2381C185.606 80.4562 185.581 76.647 185.166 72.8704C183.892 66.2417 181.826 58.7373 177.287 53.5677C175.494 51.7779 173.35 50.3786 170.989 49.4579C169.062 48.4658 167.022 47.7101 164.914 47.207C162.013 46.6985 159.072 46.449 156.127 46.4612C155.466 46.4765 154.821 46.4611 154.184 46.5072C153.546 46.5532 153.193 46.5685 152.87 46.9833C152.832 47.0408 152.801 47.1027 152.778 47.1676C151.151 46.0355 149.355 45.1693 147.455 44.6018C145.99 44.2808 144.508 44.0396 143.016 43.8794C138.578 43.4516 134.103 44.0749 129.951 45.6988C129.582 45.7832 129.221 45.8907 128.86 45.9982C130.765 44.0705 132.701 42.1581 134.721 40.3456C136.411 38.6943 138.239 37.1506 140.006 35.6146C140.44 35.8947 140.904 36.1265 141.388 36.3059C144.451 37.3391 147.674 37.8129 150.905 37.7046C153.567 37.8397 156.236 37.7551 158.885 37.4518C164.469 36.6534 169.324 33.5891 173.871 30.5248C179.103 27.3511 183.958 23.5946 188.343 19.3272C191.454 16.1783 194.296 12.7989 197.369 9.61159C198.597 8.44276 199.751 7.19872 200.825 5.88663C202.477 1.77749 192.169 3.26677 189.957 3.19747C182.806 3.32749 175.44 3.61879 168.827 6.78279C165.985 8.16513 163.373 10.0083 160.446 11.2524C152.773 14.3472 148.325 18.5176 143.156 24.7848C140.46 27.6418 137.095 30.1839 135.804 34.032C135.754 34.3293 135.819 34.6347 135.986 34.8859C136.153 35.1371 136.409 35.3152 136.703 35.3839C136.119 35.86 135.543 36.3593 134.959 36.8738C131.702 39.7385 128.407 42.6033 125.419 45.7368C124.305 46.9657 123.26 48.2483 122.231 49.5386C121.832 48.494 121.34 47.4801 121.064 46.8425C120.488 45.6519 119.989 44.3846 119.42 43.2554C119.603 42.2151 119.706 41.1623 119.728 40.1063C119.759 37.8722 119.527 35.6422 119.037 33.4623C118.061 28.6657 115.938 24.1772 112.847 20.3812C109.64 16.3277 105.479 13.1317 100.735 11.0788C98.9001 10.4157 97.0248 9.8691 95.1207 9.44229C93.9941 9.09487 92.8442 8.82784 91.6797 8.64321C90.5276 8.37429 89.5137 9.13461 89.9284 10.3405C90.463 11.3927 90.9424 12.4721 91.3644 13.5743C92.8438 17.6514 94.5803 21.6305 96.5635 25.4878C97.7912 27.7667 99.1503 29.9723 100.634 32.0936C102.618 34.3466 104.715 36.4976 106.916 38.5384C108.549 39.8603 110.389 40.9037 112.362 41.6265C113.752 42.4562 115.342 42.848 116.778 43.5855C116.847 43.6388 116.925 43.678 117.009 43.7007C118.497 46.1144 119.804 48.6357 120.918 51.2436C119.719 52.7951 118.498 54.3542 117.238 55.8749C114.949 58.5708 112.429 61.1513 110.348 64.2005C107.493 68.3667 104.919 72.7184 102.643 77.2266C101.83 78.953 101.112 80.7222 100.492 82.5263L100.415 82.6799C100.303 82.8612 100.257 83.0754 100.284 83.2867C99.7003 85.0302 99.1625 86.7967 98.6093 88.5556L98.4634 88.8475C97.7929 84.3457 96.8025 79.8973 95.4996 75.5363C94.7317 73.232 94.0252 70.8048 93.1498 68.4082C94.6655 66.9795 95.9738 65.3456 97.0367 63.5542C97.9969 61.9413 98.9341 60.3361 99.8022 58.6771C101.775 53.8737 102.543 48.6605 102.039 43.4922C101.908 41.4106 100.864 33.2074 97.469 35.2349C96.8619 36.1205 96.4147 37.1057 96.1477 38.1458C95.5562 39.3286 94.8341 40.4653 94.2272 41.6405C91.7858 47.4011 90.4412 53.5668 90.2625 59.8208C88.7343 55.5808 87.0832 51.3946 85.2478 47.3083C85.4163 47.1632 85.5206 46.9575 85.5378 46.7358C85.5551 46.5142 85.484 46.2948 85.3401 46.1254C85.0552 45.7061 84.6765 45.3589 84.2341 45.1114C82.0799 40.4497 79.6143 35.9383 76.8538 31.6079C74.8878 28.4355 72.9601 25.2248 70.8251 22.1599C67.5446 17.6493 63.765 13.5238 59.5582 9.86195C55.2966 6.13969 50.6004 2.9465 45.5721 0.351925C45.4165 0.336146 45.2594 0.353221 45.1108 0.402038C44.9623 0.450862 44.8257 0.530339 44.7098 0.635324C44.5939 0.740308 44.5014 0.868458 44.4382 1.01148C44.375 1.1545 44.3426 1.3092 44.343 1.46556C44.3507 2.17988 45.0496 2.54862 45.5565 2.91734Z" fill="#4B9D7C"/>
</svg>
